<svg xmlns="http://www.w3.org/2000/svg" viewBox="0 0 191.6 44.27"><g id="Layer_2" data-name="Layer 2"><g id="Layer_1-2" data-name="Layer 1"><path d="M36.54,7.73a6,6,0,0,0-1.93-6,6.1,6.1,0,0,0-8.61.1,6.15,6.15,0,0,0-1.23,7c.78,1.55.83,1.57.24,2.17L11,25c-.6.59-.62.54-2.17-.24a6.15,6.15,0,0,0-7,1.23,6.1,6.1,0,0,0-.1,8.61,6,6,0,0,0,6,1.93,6,6,0,0,0,1.92,6,6.18,6.18,0,0,0,9.84-7.13c-.77-1.55-.83-1.58-.23-2.17l14-14c.59-.6.62-.54,2.17.23a6.18,6.18,0,0,0,7.13-9.84,6,6,0,0,0-6-1.92Z"/><path d="M73.37,7.73a6,6,0,0,0-1.92-6,6.12,6.12,0,0,0-8.62.1,6.13,6.13,0,0,0-1.22,7c.77,1.55.83,1.57.23,2.17l-14,14c-.6.59-.62.54-2.17-.24a6.18,6.18,0,0,0-7.13,9.84,6,6,0,0,0,6,1.93,6,6,0,0,0,1.92,6,6.18,6.18,0,0,0,9.85-7.13c-.78-1.55-.84-1.58-.24-2.17l14-14c.6-.6.62-.54,2.17.23a6.18,6.18,0,0,0,7.13-9.84,6,6,0,0,0-6-1.92Z"/><path d="M110.21,7.73a6.05,6.05,0,0,0-1.93-6,6.12,6.12,0,0,0-8.62.1,6.16,6.16,0,0,0-1.22,7c.77,1.55.83,1.57.24,2.17l-14,14c-.59.59-.61.54-2.17-.24a6.18,6.18,0,0,0-7.13,9.84,6,6,0,0,0,6,1.93,6,6,0,0,0,1.93,6,6.18,6.18,0,0,0,9.84-7.13c-.77-1.55-.83-1.58-.24-2.17l14-14c.59-.6.61-.54,2.16.23a6.18,6.18,0,0,0,7.14-9.84,6,6,0,0,0-6-1.92Z"/><path d="M147,7.73a6.05,6.05,0,0,0-1.93-6,6.12,6.12,0,0,0-8.62.1,6.16,6.16,0,0,0-1.22,7c.77,1.55.83,1.57.24,2.17l-14,14c-.59.59-.61.54-2.16-.24a6.18,6.18,0,0,0-7.14,9.84,6,6,0,0,0,6,1.93,6,6,0,0,0,1.93,6A6.18,6.18,0,0,0,130,35.4c-.77-1.55-.83-1.58-.24-2.17l14-14c.59-.6.61-.54,2.17.23A6.18,6.18,0,0,0,153,9.65a6,6,0,0,0-6-1.92Z"/><path d="M183.87,7.73a6,6,0,0,0-1.92-6,6.12,6.12,0,0,0-8.62.1,6.15,6.15,0,0,0-1.23,7c.78,1.55.84,1.57.24,2.17l-14,14c-.6.59-.62.54-2.17-.24a6.18,6.18,0,0,0-7.13,9.84,6,6,0,0,0,6,1.93,6,6,0,0,0,1.92,6,6.18,6.18,0,0,0,9.84-7.13c-.77-1.55-.83-1.58-.23-2.17l14-14c.6-.6.62-.54,2.17.23a6.18,6.18,0,0,0,7.13-9.84,6,6,0,0,0-6-1.92Z"/></g></g></svg>