<svg xmlns="http://www.w3.org/2000/svg" viewBox="0 0 191.6 44.27"><g id="Layer_2" data-name="Layer 2"><g id="Layer_1-2" data-name="Layer 1"><path d="M36.54,7.73a6,6,0,0,0-1.93-6,6.1,6.1,0,0,0-8.61.1,6.15,6.15,0,0,0-1.23,7c.78,1.55.83,1.57.24,2.17L11,25c-.6.59-.62.54-2.17-.24a6.15,6.15,0,0,0-7,1.23,6.1,6.1,0,0,0-.1,8.61,6,6,0,0,0,6,1.93,6,6,0,0,0,1.92,6,6.18,6.18,0,0,0,9.84-7.13c-.77-1.55-.83-1.58-.23-2.17l14-14c.59-.6.62-.54,2.17.23a6.18,6.18,0,0,0,7.13-9.84,6,6,0,0,0-6-1.92Zm4.25,8.9a3.83,3.83,0,0,1-4.37.78c-1.83-.91-3.17-1.47-4.83.2l-14,14c-1.67,1.66-1.11,3-.2,4.83a3.83,3.83,0,0,1-.78,4.37,3.77,3.77,0,0,1-5.33.1,3.73,3.73,0,0,1-1.2-4.18h0a2,2,0,0,0-2.54-2.54h0A3.75,3.75,0,0,1,3.38,33a3.78,3.78,0,0,1,.09-5.33,3.83,3.83,0,0,1,4.38-.78c1.82.91,3.16,1.46,4.83-.21l14-14c1.67-1.67,1.12-3,.21-4.83a3.83,3.83,0,0,1,.78-4.38A3.78,3.78,0,0,1,33,3.38a3.75,3.75,0,0,1,1.2,4.18h0a2,2,0,0,0,2.54,2.54h0a3.73,3.73,0,0,1,4.18,1.2A3.77,3.77,0,0,1,40.79,16.63Z"/><path d="M73.37,7.73a6,6,0,0,0-1.92-6,6.12,6.12,0,0,0-8.62.1,6.13,6.13,0,0,0-1.22,7c.77,1.55.83,1.57.23,2.17l-14,14c-.6.59-.62.54-2.17-.24a6.18,6.18,0,0,0-7.13,9.84,6,6,0,0,0,6,1.93,6,6,0,0,0,1.92,6,6.18,6.18,0,0,0,9.85-7.13c-.78-1.55-.84-1.58-.24-2.17l14-14c.6-.6.62-.54,2.17.23a6.18,6.18,0,0,0,7.13-9.84,6,6,0,0,0-6-1.92Zm4.25,8.9a3.83,3.83,0,0,1-4.37.78c-1.82-.91-3.16-1.47-4.83.2l-14,14c-1.66,1.66-1.11,3-.2,4.83a3.83,3.83,0,0,1-.78,4.37,4,4,0,0,1-6.53-4.08h0a2,2,0,0,0-2.54-2.54h0a4,4,0,0,1-4.08-6.53,3.82,3.82,0,0,1,4.37-.78c1.83.91,3.16,1.46,4.83-.21l14-14c1.67-1.67,1.11-3,.2-4.83a3.85,3.85,0,0,1,.78-4.38,3.78,3.78,0,0,1,5.33-.09A3.73,3.73,0,0,1,71,7.56h0a2,2,0,0,0,2.54,2.54h0a3.73,3.73,0,0,1,4.18,1.2A3.77,3.77,0,0,1,77.62,16.63Z"/><path d="M110.21,7.73a6.05,6.05,0,0,0-1.93-6,6.12,6.12,0,0,0-8.62.1,6.16,6.16,0,0,0-1.22,7c.77,1.55.83,1.57.24,2.17l-14,14c-.59.59-.61.54-2.17-.24a6.18,6.18,0,0,0-7.13,9.84,6,6,0,0,0,6,1.93,6,6,0,0,0,1.93,6,6.18,6.18,0,0,0,9.84-7.13c-.77-1.55-.83-1.58-.24-2.17l14-14c.59-.6.61-.54,2.16.23a6.18,6.18,0,0,0,7.14-9.84,6,6,0,0,0-6-1.92Zm4.25,8.9a3.84,3.84,0,0,1-4.38.78c-1.82-.91-3.16-1.47-4.83.2l-14,14c-1.67,1.66-1.12,3-.21,4.83a3.82,3.82,0,0,1-.78,4.37,4,4,0,0,1-6.53-4.08h0a2,2,0,0,0-2.53-2.54h0a4,4,0,0,1-4.09-6.53,3.82,3.82,0,0,1,4.37-.78c1.83.91,3.17,1.46,4.84-.21l14-14c1.67-1.67,1.12-3,.21-4.83a3.82,3.82,0,0,1,.78-4.38,3.78,3.78,0,0,1,5.33-.09,3.74,3.74,0,0,1,1.19,4.18h0a2,2,0,0,0,2.53,2.54h0a3.73,3.73,0,0,1,4.18,1.2A3.77,3.77,0,0,1,114.46,16.63Z"/><path d="M147,7.73a6.05,6.05,0,0,0-1.93-6,6.12,6.12,0,0,0-8.62.1,6.16,6.16,0,0,0-1.22,7c.77,1.55.83,1.57.24,2.17l-14,14c-.59.59-.61.54-2.16-.24a6.18,6.18,0,0,0-7.14,9.84,6,6,0,0,0,6,1.93,6,6,0,0,0,1.93,6A6.18,6.18,0,0,0,130,35.4c-.77-1.55-.83-1.58-.24-2.17l14-14c.59-.6.61-.54,2.17.23A6.18,6.18,0,0,0,153,9.65a6,6,0,0,0-6-1.92Zm4.25,8.9a3.83,3.83,0,0,1-4.37.78c-1.83-.91-3.17-1.47-4.84.2l-14,14c-1.67,1.66-1.12,3-.21,4.83a3.86,3.86,0,0,1-6.11,4.47,3.75,3.75,0,0,1-1.19-4.18h0a2,2,0,0,0-.47-2.07,2,2,0,0,0-2.06-.47h0A4,4,0,0,1,114,27.64a3.83,3.83,0,0,1,4.38-.78c1.82.91,3.16,1.46,4.83-.21l14-14c1.67-1.67,1.12-3,.21-4.83a3.83,3.83,0,0,1,.78-4.38,3.78,3.78,0,0,1,5.33-.09,3.76,3.76,0,0,1,1.2,4.18h0a2,2,0,0,0,.47,2.07,2,2,0,0,0,2.06.47h0a3.74,3.74,0,0,1,4.19,1.2A3.77,3.77,0,0,1,151.29,16.63Z"/><path d="M183.87,7.73a6,6,0,0,0-1.92-6,6.12,6.12,0,0,0-8.62.1,6.15,6.15,0,0,0-1.23,7c.78,1.55.84,1.57.24,2.17l-14,14c-.6.59-.62.54-2.17-.24a6.18,6.18,0,0,0-7.13,9.84,6,6,0,0,0,6,1.93,6,6,0,0,0,1.92,6,6.18,6.18,0,0,0,9.84-7.13c-.77-1.55-.83-1.58-.23-2.17l14-14c.6-.6.62-.54,2.17.23a6.18,6.18,0,0,0,7.13-9.84,6,6,0,0,0-6-1.92Zm4.25,8.9a3.83,3.83,0,0,1-4.37.78c-1.83-.91-3.17-1.47-4.83.2l-14,14c-1.67,1.66-1.11,3-.2,4.83a3.83,3.83,0,0,1-.78,4.37,3.77,3.77,0,0,1-5.33.1,3.73,3.73,0,0,1-1.2-4.18h0a2,2,0,0,0-2.54-2.54h0a3.75,3.75,0,0,1-4.18-1.2,3.78,3.78,0,0,1,.09-5.33,3.83,3.83,0,0,1,4.38-.78c1.82.91,3.16,1.46,4.83-.21l14-14c1.67-1.67,1.12-3,.21-4.83A3.83,3.83,0,0,1,175,3.47a3.78,3.78,0,0,1,5.33-.09,3.75,3.75,0,0,1,1.2,4.18h0A2,2,0,0,0,184,10.1h0a3.73,3.73,0,0,1,4.18,1.2A3.77,3.77,0,0,1,188.12,16.63Z"/></g></g></svg>