<svg xmlns="http://www.w3.org/2000/svg" viewBox="0 0 81.3 80.59"><defs><style>.cls-1,.cls-2{fill:#fff;}.cls-2{opacity:0.73;}</style></defs><g id="Layer_2" data-name="Layer 2"><g id="Layer_1-2" data-name="Layer 1"><path class="cls-1" d="M40.65,13.81c-10.57,0-18.26,8.56-18.26,19.13,0,7.31,8.28,16.59,13.93,21.62a6.51,6.51,0,0,0,8.66,0c5.65-5,13.93-14.31,13.93-21.62C58.91,22.37,51.22,13.81,40.65,13.81Zm11.14,26.9a1.22,1.22,0,0,1-1.7,0l-4.84-4.84A7.27,7.27,0,1,1,48,30.21a7.18,7.18,0,0,1-1.12,3.86L51.79,39a1.21,1.21,0,0,1,0,1.7Z"/><circle class="cls-1" cx="76.55" cy="4.75" r="4.75"/><circle class="cls-1" cx="4.75" cy="4.75" r="4.75"/><path class="cls-2" d="M9.06,80.59a3.66,3.66,0,0,1-1.85-.47,3.45,3.45,0,0,1-1.29-1.31,3.88,3.88,0,0,1-.47-1.93V70.24a1.88,1.88,0,0,0-.24-.94,1.84,1.84,0,0,0-.67-.66,1.74,1.74,0,0,0-.92-.25,1.65,1.65,0,0,0-.9.25,1.72,1.72,0,0,0-.65.66,1.88,1.88,0,0,0-.24.94V80.37H0V70.49A3.83,3.83,0,0,1,.46,68.6a3.41,3.41,0,0,1,1.28-1.33,3.63,3.63,0,0,1,1.88-.48,3.71,3.71,0,0,1,1.91.48A3.48,3.48,0,0,1,6.81,68.6a3.94,3.94,0,0,1,.46,1.89v6.63a1.86,1.86,0,0,0,.24.95,2,2,0,0,0,.66.65,1.64,1.64,0,0,0,.89.25,1.61,1.61,0,0,0,.88-.25,1.79,1.79,0,0,0,.63-.65,1.86,1.86,0,0,0,.24-.95V70.49a3.84,3.84,0,0,1,.47-1.89,3.5,3.5,0,0,1,1.29-1.33,3.67,3.67,0,0,1,1.9-.48,3.64,3.64,0,0,1,1.89.48,3.48,3.48,0,0,1,1.28,1.33,3.94,3.94,0,0,1,.46,1.89v9.88H16.27V70.24A1.88,1.88,0,0,0,16,69.3a1.79,1.79,0,0,0-.65-.66,1.8,1.8,0,0,0-1.83,0,1.83,1.83,0,0,0-.91,1.6v6.64a3.88,3.88,0,0,1-.46,1.93,3.57,3.57,0,0,1-1.28,1.31A3.65,3.65,0,0,1,9.06,80.59Z"/><path class="cls-2" d="M19.87,80.37l4.54-12.08a2.31,2.31,0,0,1,.84-1.14,2.15,2.15,0,0,1,1.24-.36,2.07,2.07,0,0,1,2.08,1.48l4.55,12.1h-2L30,77.14H23L21.8,80.37Zm3.68-4.85h5.86L27,68.9a1.22,1.22,0,0,0-.21-.38.38.38,0,0,0-.32-.13.39.39,0,0,0-.31.13,1.22,1.22,0,0,0-.19.38Z"/><path class="cls-2" d="M34.73,80.37V67h5.62a4.65,4.65,0,0,1,2.29.56,4.26,4.26,0,0,1,1.64,1.57,4.85,4.85,0,0,1,0,4.69,4.29,4.29,0,0,1-1.63,1.59,4.78,4.78,0,0,1-2.35.57H36.56v4.37Zm1.83-6H40.1A3.17,3.17,0,0,0,41.59,74a2.59,2.59,0,0,0,1.07-1,2.85,2.85,0,0,0,.4-1.54A3,3,0,0,0,42.67,70a2.66,2.66,0,0,0-1.07-1,3.19,3.19,0,0,0-1.48-.34H36.56Z"/><path class="cls-1" d="M47.2,80.37V67h5.74a5,5,0,0,1,2.46.61,4.68,4.68,0,0,1,1.77,1.68,4.6,4.6,0,0,1,.67,2.49A4.73,4.73,0,0,1,55.4,76a5.1,5.1,0,0,1-2.46.61H50.4v3.74Zm3.2-6.43h2.18a2.14,2.14,0,0,0,1-.25,1.92,1.92,0,0,0,.75-.72,2.41,2.41,0,0,0,0-2.29,2,2,0,0,0-.75-.74,2.14,2.14,0,0,0-1-.25H50.4Z"/><path class="cls-1" d="M63.45,80.37a4,4,0,0,1-2-.53A4,4,0,0,1,60,78.43a3.7,3.7,0,0,1-.55-2,3.56,3.56,0,0,1,.37-1.58,4,4,0,0,1,1-1.26,3.94,3.94,0,0,1-1-1.22,3.36,3.36,0,0,1-.35-1.49,3.76,3.76,0,0,1,.53-2,4.08,4.08,0,0,1,1.43-1.37,4,4,0,0,1,2-.5H69V69.7H63.9a1.25,1.25,0,0,0-.66.17A1.25,1.25,0,0,0,62.57,71a1.26,1.26,0,0,0,.18.66,1.21,1.21,0,0,0,.49.46,1.34,1.34,0,0,0,.66.16h4.48v2.67H64a1.4,1.4,0,0,0-.73.19,1.52,1.52,0,0,0-.51.5,1.27,1.27,0,0,0-.19.7,1.29,1.29,0,0,0,.19.7,1.3,1.3,0,0,0,.51.48,1.49,1.49,0,0,0,.73.18h5v2.69Z"/><path class="cls-1" d="M78.21,80.37a4.19,4.19,0,0,1-2.15-.55,3.91,3.91,0,0,1-1.45-1.46,4,4,0,0,1-.52-2V69.69H70.46V67H80.89v2.67h-3.6v6.92a1.08,1.08,0,0,0,.31.76,1,1,0,0,0,.76.33h1v2.67Z"/></g></g></svg>