<svg xmlns="http://www.w3.org/2000/svg" viewBox="0 0 529.13 480"><defs><style>.cls-1{fill:none;}.cls-2{fill:#fff;}</style></defs><g id="Layer_2" data-name="Layer 2"><g id="Layer_1-2" data-name="Layer 1"><path class="cls-1" d="M384,423.87v-15.6l-19.26,8.56A41.85,41.85,0,0,1,384,423.87Z"/><path class="cls-1" d="M370.93,269A157.77,157.77,0,0,0,254.65,320H320v32a66.2,66.2,0,0,1,29.3,48.59L384,385.19V269Z"/><path class="cls-1" d="M360.38,437.7H328.74V407.36A45.05,45.05,0,0,0,320,380.64V448h58.47A21.06,21.06,0,0,0,360.38,437.7Z"/><path class="cls-1" d="M476.52,201.29l-3.65,4.38h-7.76A63.9,63.9,0,0,1,448,208H416v75a52.73,52.73,0,0,0,92-35.14V166.21A64.2,64.2,0,0,1,476.52,201.29Zm-42.31,46.57a10.55,10.55,0,1,1,10.54-10.55A10.55,10.55,0,0,1,434.21,247.86Zm42.18,0a10.55,10.55,0,1,1,10.55-10.55A10.54,10.54,0,0,1,476.39,247.86Z"/><path class="cls-1" d="M288,352H231.74a157.31,157.31,0,0,0-19,75.15,31.67,31.67,0,0,0,31.64,31.64h45.51A31.86,31.86,0,0,1,288,448Z"/><path class="cls-1" d="M370.93,247.86h2.57L278.06,224H199.91a52.51,52.51,0,0,1,12.81,34.4V320h14.63A179.05,179.05,0,0,1,370.93,247.86Z"/><path class="cls-1" d="M402.56,142.39A21.13,21.13,0,0,1,418.77,150l21.69,26H448a32,32,0,0,0,32-32V96H412.22l-16-32H313.34L304,54.66V197.52l77.47,19.37V163.48A21.1,21.1,0,0,1,402.56,142.39ZM368,112a16,16,0,1,1,16-16A16,16,0,0,1,368,112Z"/><path class="cls-1" d="M444.75,358.19v100.6h21.1V320.62a73.5,73.5,0,0,1-10.55,1.06,72.48,72.48,0,0,1-39.3-11.5V371Z"/><path class="cls-1" d="M160,226.76a10.49,10.49,0,0,1-6.7-2.4A64.08,64.08,0,0,0,96,288V448h64V320h31.63V258.4A31.67,31.67,0,0,0,160,226.76Z"/><polygon class="cls-1" points="402.57 176 413 176 402.57 163.48 402.57 176"/><path class="cls-2" d="M191.63,320H160V448H96V288a64.08,64.08,0,0,1,57.29-63.64,10.54,10.54,0,0,1,6.7-18.69A52.64,52.64,0,0,1,199.91,224h78.15l95.44,23.86h8v-31L304,197.52V54.66L313.34,64h82.88l16,32H480v48a32,32,0,0,1-32,32h-7.54l7.14,8.57H463L491.83,150A21.12,21.12,0,0,1,508,142.39a21.44,21.44,0,0,1,4,.38V80a16,16,0,0,0-16-16H432l-7.16-14.31C420,39.92,407.13,32,396.22,32H326.59L299.31,4.72A15.58,15.58,0,0,0,288.13,0,16,16,0,0,0,272,15.87V192H160a95.52,95.52,0,0,0-52.94,16H80a48.05,48.05,0,0,1-48-48,16,16,0,0,0-32,0,79.94,79.94,0,0,0,77.47,79.73A95,95,0,0,0,64,288V448a32,32,0,0,0,32,32h64a32,32,0,0,0,32-32V433.31a52.12,52.12,0,0,1-.37-6.16Z"/><circle class="cls-2" cx="368" cy="96" r="16"/><path class="cls-2" d="M384,423.87a42.17,42.17,0,0,1,18.57,34.92,21.12,21.12,0,0,1-21.1,21.1H317.4c.86.07,1.72.11,2.6.11h64a32,32,0,0,0,32-32V394.06l-32,14.21Z"/><path class="cls-2" d="M384,176h18.57V163.48L413,176h27.46l-21.69-26a21.1,21.1,0,0,0-37.3,13.51v53.41l2.53.63Z"/><path class="cls-2" d="M199.91,224H160a64.52,64.52,0,0,0-6.71.36,10.49,10.49,0,0,0,6.7,2.4,31.67,31.67,0,0,1,31.64,31.64V320h21.09V258.4A52.51,52.51,0,0,0,199.91,224Z"/><path class="cls-2" d="M512,142.77V144a63.88,63.88,0,0,1-4,22.21v81.65A52.73,52.73,0,0,1,416,283v27.18a72.48,72.48,0,0,0,39.3,11.5,73.5,73.5,0,0,0,10.55-1.06V458.79h-21.1V358.19L416,371v23.09l7.66-3.41v68.14a21.11,21.11,0,0,0,21.09,21.1h21.1a21.11,21.11,0,0,0,21.09-21.1V314.28a73.73,73.73,0,0,0,42.19-66.42V163.48A21.1,21.1,0,0,0,512,142.77Z"/><circle class="cls-2" cx="434.21" cy="237.31" r="10.55"/><path class="cls-2" d="M320,352v28.61a45.05,45.05,0,0,1,8.74,26.72V437.7h31.64A21.06,21.06,0,0,1,378.47,448H384V423.87a41.85,41.85,0,0,0-19.26-7L384,408.27V385.19l-34.7,15.43A66.2,66.2,0,0,0,320,352Z"/><circle class="cls-2" cx="476.39" cy="237.31" r="10.55"/><path class="cls-2" d="M289.87,458.79H244.36a31.67,31.67,0,0,1-31.64-31.64,157.31,157.31,0,0,1,19-75.15H192v81.31a52.8,52.8,0,0,0,52.36,46.58h73A32,32,0,0,1,289.87,458.79Z"/><path class="cls-2" d="M370.93,269H384V250.48l-10.5-2.62h-2.57A179.05,179.05,0,0,0,227.35,320h27.3A157.77,157.77,0,0,1,370.93,269Z"/><path class="cls-2" d="M402.57,458.79A42.17,42.17,0,0,0,384,423.87V448h-5.53a21,21,0,0,1,3,10.79h-91.6a32,32,0,0,0,27.53,21.1h64.07A21.12,21.12,0,0,0,402.57,458.79Z"/><path class="cls-2" d="M491.83,150,463,184.57H447.6L440.46,176H413l24.72,29.67h27.39a63,63,0,0,0,11.41-4.38L508,163.48v2.73A63.88,63.88,0,0,0,512,144v-1.23a21.44,21.44,0,0,0-4-.38A21.12,21.12,0,0,0,491.83,150Z"/><path class="cls-2" d="M402.57,176H384v41.52l-2.53-.63v31h-8l10.5,2.62V269h.91A74.55,74.55,0,0,0,416,310.18V283a52.51,52.51,0,0,1-13.43-35.14Z"/><path class="cls-2" d="M298.31,348.47l-2.56,10.25a5.37,5.37,0,0,0,3.56,6.3A45.05,45.05,0,0,1,320,380.64V352a65.8,65.8,0,0,0-15-7.37A5.26,5.26,0,0,0,298.31,348.47Z"/><path class="cls-2" d="M199.91,224A52.64,52.64,0,0,0,160,205.67a10.54,10.54,0,0,0-6.7,18.69A64.52,64.52,0,0,1,160,224Z"/><path class="cls-2" d="M231.74,352a158.66,158.66,0,0,1,22.91-32h-27.3a180.72,180.72,0,0,0-14.63,23V320H191.63V427.15a52.12,52.12,0,0,0,.37,6.16V352Z"/><polygon class="cls-2" points="384 385.19 384 408.27 416 394.06 416 370.97 384 385.19"/></g></g></svg>