<svg xmlns="http://www.w3.org/2000/svg" viewBox="0 0 339.55 55.1"><g id="Layer_2" data-name="Layer 2"><g id="Layer_1-2" data-name="Layer 1"><path d="M28.58,12.7C18,12.7,10.32,21.27,10.32,31.83c0,7.31,8.28,16.59,13.92,21.62a6.52,6.52,0,0,0,8.67,0c5.64-5,13.93-14.31,13.93-21.62C46.84,21.27,39.14,12.7,28.58,12.7Z"/><circle cx="52.4" cy="16.26" r="4.75"/><circle cx="4.75" cy="16.26" r="4.75"/><circle cx="18.64" cy="4.75" r="4.75"/><circle cx="39.46" cy="4.75" r="4.75"/><path d="M240.37,12.7c-10.56,0-18.26,8.57-18.26,19.13,0,7.31,8.29,16.59,13.93,21.62a6.52,6.52,0,0,0,8.67,0c5.64-5,13.92-14.31,13.92-21.62C258.63,21.27,250.94,12.7,240.37,12.7Z"/><circle cx="264.2" cy="16.26" r="4.75"/><circle cx="216.55" cy="16.26" r="4.75"/><circle cx="230.44" cy="4.75" r="4.75"/><circle cx="251.26" cy="4.75" r="4.75"/><path d="M311,12.7c-10.57,0-18.26,8.57-18.26,19.13,0,7.31,8.28,16.59,13.93,21.62a6.52,6.52,0,0,0,8.67,0c5.64-5,13.92-14.31,13.92-21.62C329.23,21.27,321.54,12.7,311,12.7Z"/><circle cx="334.79" cy="16.26" r="4.75"/><circle cx="287.15" cy="16.26" r="4.75"/><circle cx="301.04" cy="4.75" r="4.75"/><circle cx="321.86" cy="4.75" r="4.75"/><path d="M169.77,12.7c-10.56,0-18.26,8.57-18.26,19.13,0,7.31,8.29,16.59,13.93,21.62a6.52,6.52,0,0,0,8.67,0c5.64-5,13.93-14.31,13.93-21.62C188,21.27,180.34,12.7,169.77,12.7Z"/><circle cx="193.6" cy="16.26" r="4.75"/><circle cx="145.95" cy="16.26" r="4.75"/><circle cx="159.84" cy="4.75" r="4.75"/><circle cx="180.66" cy="4.75" r="4.75"/><path d="M99.18,12.7c-10.57,0-18.27,8.57-18.27,19.13,0,7.31,8.29,16.59,13.93,21.62a6.52,6.52,0,0,0,8.67,0c5.64-5,13.93-14.31,13.93-21.62C117.44,21.27,109.74,12.7,99.18,12.7Z"/><circle cx="123" cy="16.26" r="4.75"/><circle cx="75.35" cy="16.26" r="4.75"/><circle cx="89.24" cy="4.75" r="4.75"/><circle cx="110.06" cy="4.75" r="4.75"/></g></g></svg>