<svg xmlns="http://www.w3.org/2000/svg" viewBox="0 0 293.2 56.21"><defs><style>.cls-1,.cls-2{fill:#fff;}.cls-2{opacity:0.73;}</style></defs><g id="Layer_2" data-name="Layer 2"><g id="Layer_1-2" data-name="Layer 1"><path class="cls-1" d="M40.65,13.81c-10.57,0-18.26,8.56-18.26,19.13,0,7.31,8.28,16.59,13.93,21.62a6.51,6.51,0,0,0,8.66,0c5.65-5,13.93-14.31,13.93-21.62C58.91,22.37,51.22,13.81,40.65,13.81Zm11.14,26.9a1.22,1.22,0,0,1-1.7,0l-4.84-4.84A7.27,7.27,0,1,1,48,30.21a7.18,7.18,0,0,1-1.12,3.86L51.79,39a1.21,1.21,0,0,1,0,1.7Z"/><circle class="cls-1" cx="76.55" cy="4.75" r="4.75"/><circle class="cls-1" cx="4.75" cy="4.75" r="4.75"/><path class="cls-2" d="M121.93,44.56a8.57,8.57,0,0,1-4.41-1.13,8.14,8.14,0,0,1-3.07-3.12,9.25,9.25,0,0,1-1.11-4.61V19.87a4.22,4.22,0,0,0-.6-2.22,4.33,4.33,0,0,0-1.59-1.59,4.13,4.13,0,0,0-2.18-.6,4,4,0,0,0-2.16.6,4.3,4.3,0,0,0-1.55,1.59,4.49,4.49,0,0,0-.56,2.22V44h-4.37V20.47a9.19,9.19,0,0,1,1.09-4.5,8.15,8.15,0,0,1,3-3.17,8.66,8.66,0,0,1,4.5-1.15,8.79,8.79,0,0,1,4.55,1.15,8.13,8.13,0,0,1,3,3.17,9.19,9.19,0,0,1,1.09,4.5V36.29a4.21,4.21,0,0,0,.6,2.25,4.6,4.6,0,0,0,1.56,1.57,4.09,4.09,0,0,0,2.12.59,3.93,3.93,0,0,0,2.09-.59,4.48,4.48,0,0,0,1.52-1.57,4.38,4.38,0,0,0,.57-2.25V20.47a9.1,9.1,0,0,1,1.11-4.5,8.42,8.42,0,0,1,3.07-3.17,8.79,8.79,0,0,1,4.55-1.15,8.66,8.66,0,0,1,4.5,1.15,8.15,8.15,0,0,1,3,3.17,9.19,9.19,0,0,1,1.09,4.5V44h-4.37V19.87a4.49,4.49,0,0,0-.56-2.22A4.3,4.3,0,0,0,137,16.06a4,4,0,0,0-2.16-.6,4.1,4.1,0,0,0-2.2.6,4.35,4.35,0,0,0-1.57,1.59,4.22,4.22,0,0,0-.59,2.22V35.7a9.26,9.26,0,0,1-1.12,4.61,8.28,8.28,0,0,1-3,3.12A8.5,8.5,0,0,1,121.93,44.56Z"/><path class="cls-2" d="M147.71,44l10.82-28.78a5.6,5.6,0,0,1,2-2.73,5.09,5.09,0,0,1,2.95-.86,5.33,5.33,0,0,1,3,.84,5.16,5.16,0,0,1,2,2.7L179.31,44h-4.78l-2.77-7.68H155.12L152.3,44Zm8.77-11.55h14l-5.68-15.78a3.31,3.31,0,0,0-.5-.91,1,1,0,0,0-.78-.32.9.9,0,0,0-.72.32,2.5,2.5,0,0,0-.46.91Z"/><path class="cls-2" d="M183.13,44V12.19h13.41A11.26,11.26,0,0,1,202,13.53a10.35,10.35,0,0,1,3.91,3.75,10.71,10.71,0,0,1,1.45,5.64,10.72,10.72,0,0,1-1.43,5.55A10.21,10.21,0,0,1,202,32.24a11.32,11.32,0,0,1-5.59,1.37h-9V44Zm4.36-14.28H196a7.8,7.8,0,0,0,3.54-.79A6.14,6.14,0,0,0,202,26.6a6.82,6.82,0,0,0,1-3.68,7,7,0,0,0-.94-3.7,6.26,6.26,0,0,0-2.54-2.35,7.76,7.76,0,0,0-3.53-.81h-8.5Z"/><path class="cls-1" d="M212.86,44V12.19h13.69a11.93,11.93,0,0,1,5.86,1.46,11.33,11.33,0,0,1,4.23,4,11,11,0,0,1,1.59,5.93,11.2,11.2,0,0,1-5.82,10,11.93,11.93,0,0,1-5.86,1.46H220.5V44ZM220.5,28.7h5.18a5.2,5.2,0,0,0,2.44-.59,4.57,4.57,0,0,0,1.79-1.73,5.17,5.17,0,0,0,.68-2.73,5.17,5.17,0,0,0-.68-2.73,4.7,4.7,0,0,0-1.79-1.75,5,5,0,0,0-2.44-.61H220.5Z"/><path class="cls-1" d="M251.6,44a9.63,9.63,0,0,1-8.34-4.62,8.92,8.92,0,0,1-1.3-4.79,8.16,8.16,0,0,1,.89-3.75,9.61,9.61,0,0,1,2.38-3,9.1,9.1,0,0,1-2.29-2.91,7.81,7.81,0,0,1-.84-3.54,8.79,8.79,0,0,1,1.27-4.71,9.45,9.45,0,0,1,8.14-4.48h13.41V18.6l-12.23,0a3.26,3.26,0,0,0-2.75,1.5,2.87,2.87,0,0,0-.43,1.59,2.92,2.92,0,0,0,.43,1.57,3,3,0,0,0,1.16,1.09,3.3,3.3,0,0,0,1.59.38h10.69v6.37H252.92a3.29,3.29,0,0,0-1.73.46A3.57,3.57,0,0,0,250,32.7a3.1,3.1,0,0,0-.45,1.68,3.14,3.14,0,0,0,1.68,2.82,3.68,3.68,0,0,0,1.73.41h12V44Z"/><path class="cls-1" d="M286.79,44a9.83,9.83,0,0,1-5.11-1.3,9.32,9.32,0,0,1-3.46-3.48A9.61,9.61,0,0,1,277,34.38V18.56h-8.64V12.19H293.2v6.37h-8.59v16.5a2.52,2.52,0,0,0,.75,1.82,2.4,2.4,0,0,0,1.8.77h2.5V44Z"/></g></g></svg>