<?xml version="1.0" standalone="no"?>
<!DOCTYPE svg PUBLIC "-//W3C//DTD SVG 20010904//EN"
 "http://www.w3.org/TR/2001/REC-SVG-20010904/DTD/svg10.dtd">
<svg version="1.0" xmlns="http://www.w3.org/2000/svg"
 width="396.000000pt" height="512.000000pt" viewBox="0 0 396.000000 512.000000"
 preserveAspectRatio="xMidYMid meet">
<metadata>
Created by potrace 1.16, written by Peter Selinger 2001-2019
</metadata>
<g transform="translate(0.000000,512.000000) scale(0.100000,-0.100000)"
fill="#000000" stroke="none">
<path d="M1745 5113 c-27 -3 -57 -10 -65 -17 -8 -7 -43 -21 -78 -30 -34 -9
-74 -28 -89 -42 -14 -13 -32 -24 -39 -24 -7 0 -33 -20 -58 -45 -40 -41 -46
-53 -57 -118 -14 -87 -3 -157 42 -256 20 -44 26 -67 18 -70 -35 -11 -192 -127
-240 -178 -155 -160 -181 -198 -212 -313 -77 -278 -91 -415 -62 -601 18 -119
17 -134 -22 -304 -26 -112 -27 -172 -7 -334 l7 -55 -33 24 c-54 39 -171 160
-232 242 -122 162 -186 322 -218 547 -24 170 -24 198 -4 342 38 279 159 507
339 645 37 28 45 58 19 68 -17 7 -47 -7 -78 -35 -11 -11 -23 -19 -27 -19 -6 0
-121 -129 -147 -165 -4 -5 -30 -39 -58 -75 -74 -93 -136 -193 -179 -285 -20
-44 -40 -87 -44 -95 -10 -20 -64 -206 -88 -300 -15 -62 -18 -111 -16 -280 1
-217 18 -360 55 -475 25 -76 36 -237 18 -270 -22 -41 -9 -190 23 -257 15 -31
27 -64 27 -72 0 -26 56 -189 90 -258 43 -89 121 -181 211 -250 89 -67 131 -89
227 -118 76 -22 300 -45 337 -34 71 22 83 78 55 264 -17 111 -20 151 -11 172
6 16 14 28 18 28 5 0 32 -42 61 -93 126 -219 196 -320 258 -376 42 -37 60 -63
84 -121 17 -40 46 -96 65 -124 203 -300 629 -436 895 -284 49 28 49 38 11 155
-16 48 -37 115 -46 148 -16 57 -23 85 -62 255 -13 56 -18 118 -18 245 0 163 1
172 25 215 33 59 80 90 137 90 69 0 80 -10 93 -92 16 -94 7 -407 -16 -538 -36
-215 10 -305 170 -332 207 -34 516 136 638 352 17 30 48 80 68 110 40 60 59
118 95 280 13 58 37 157 54 222 30 115 50 215 76 378 8 47 19 108 25 135 6 28
17 109 25 180 7 72 16 147 20 168 4 21 2 136 -5 255 -12 208 -14 220 -43 282
l-30 65 -8 -40 c-4 -22 -8 -69 -9 -105 0 -36 -5 -83 -10 -105 -15 -71 -42
-160 -50 -170 -5 -5 -9 -13 -9 -17 -1 -5 -1 -9 -2 -10 0 -2 -2 -10 -4 -18 -9
-44 -118 -200 -190 -272 -125 -126 -280 -198 -425 -198 -64 0 -151 19 -171 37
-13 11 -32 12 -84 7 -66 -7 -67 -7 -95 -53 -38 -62 -74 -81 -148 -81 -72 0
-101 10 -154 52 l-40 31 -43 -21 c-38 -18 -52 -20 -131 -12 -82 7 -90 10 -115
39 -14 17 -34 57 -45 89 -24 76 -28 80 -82 87 -139 17 -192 29 -251 56 -203
94 -356 261 -395 429 -13 54 -14 103 -6 290 9 234 18 301 52 410 24 76 77 191
110 240 13 19 35 54 49 78 l26 42 26 -20 c14 -11 39 -25 56 -31 36 -13 51 -6
141 66 79 64 187 121 297 160 82 28 85 31 101 85 3 8 7 54 9 102 8 153 -36
240 -143 287 -42 19 -168 43 -199 39 -5 -1 -32 -3 -60 -5z m545 -2574 c58 -12
126 -24 152 -28 26 -4 50 -10 53 -13 15 -14 -55 -66 -109 -82 -56 -16 -63 -16
-129 0 -52 12 -81 26 -109 52 -102 92 -62 112 142 71z"/>
<path d="M3230 4936 c-116 -60 -202 -200 -212 -345 -3 -40 0 -47 27 -65 17
-12 64 -32 104 -45 80 -26 140 -74 167 -134 36 -79 105 -147 149 -147 11 0 50
12 87 26 83 32 142 88 189 181 32 64 34 72 34 172 0 96 -3 111 -28 163 -38 77
-103 140 -185 180 -62 30 -76 32 -177 35 -98 2 -115 -1 -155 -21z"/>
<path d="M1880 3881 c-187 -58 -322 -266 -324 -501 l-1 -85 39 -42 c62 -67
156 -90 245 -58 44 15 71 34 131 89 20 18 40 35 46 37 21 9 205 214 210 235
13 51 -60 208 -131 281 l-51 53 -70 -1 c-38 0 -80 -4 -94 -8z"/>
<path d="M2851 3739 c-18 -5 -54 -31 -81 -58 -71 -71 -113 -199 -76 -231 18
-14 50 -111 66 -195 26 -137 75 -225 137 -246 50 -16 147 -7 181 17 39 29 85
102 108 170 14 44 19 87 19 174 l0 115 -42 85 c-49 98 -55 106 -105 143 -29
23 -49 29 -105 32 -37 3 -83 0 -102 -6z"/>
<path d="M2197 3000 c-77 -15 -116 -54 -103 -105 5 -18 15 -27 36 -32 17 -3
33 -10 36 -14 3 -5 16 -9 28 -9 22 0 49 -25 108 -98 22 -28 30 -27 65 2 16 14
58 34 94 45 95 31 129 55 129 90 0 41 -64 94 -139 115 -59 16 -185 20 -254 6z"/>
<path d="M3633 1569 c-60 -30 -88 -78 -88 -155 0 -75 28 -122 92 -153 57 -28
93 -27 154 5 39 19 55 35 70 67 40 90 10 192 -70 234 -55 29 -103 29 -158 2z
m144 -40 c94 -58 82 -195 -20 -234 -56 -21 -99 -10 -143 36 -25 26 -29 38 -29
86 0 53 2 57 44 94 51 46 94 51 148 18z"/>
<path d="M3667 1513 c-39 -10 -60 -103 -36 -157 24 -52 123 -60 155 -11 27 41
-6 63 -39 25 -50 -59 -117 23 -71 88 16 23 53 29 71 11 6 -6 21 -9 34 -7 l24
3 -27 28 c-26 26 -61 33 -111 20z"/>
<path d="M3685 904 c-87 -45 -126 -149 -92 -244 58 -160 302 -161 356 -1 22
68 9 153 -33 199 -52 58 -164 80 -231 46z m129 -35 c104 -29 140 -160 65 -237
-107 -110 -297 -3 -250 141 14 40 54 80 96 95 39 14 43 14 89 1z"/>
<path d="M3680 730 l0 -110 25 0 c23 0 25 4 25 46 0 38 3 45 16 40 9 -3 17 -6
20 -6 2 0 13 -18 24 -40 16 -30 26 -40 45 -40 31 0 31 6 0 52 l-25 38 20 20
c25 25 26 72 2 93 -13 12 -37 17 -85 17 l-67 0 0 -110z"/>
<path d="M0 841 c0 -12 9 -21 24 -25 27 -7 56 -43 76 -96 7 -19 19 -48 26 -65
7 -16 29 -70 49 -120 20 -49 40 -99 45 -110 5 -11 18 -42 28 -70 11 -27 45
-113 77 -190 31 -77 59 -146 62 -152 11 -27 44 -13 60 25 8 20 26 61 39 90 13
29 24 55 24 58 0 3 10 26 21 52 12 26 30 66 40 89 11 23 19 44 19 47 0 3 14
36 31 73 l32 68 13 -40 c8 -22 18 -49 24 -60 5 -11 36 -92 69 -180 84 -226 89
-235 110 -235 23 0 29 13 136 305 14 39 30 79 35 90 11 26 50 127 89 232 48
131 70 173 96 185 14 6 25 19 25 30 0 16 -10 18 -110 18 -103 0 -110 -1 -110
-20 0 -13 7 -20 19 -20 10 0 29 -8 42 -19 30 -24 32 -16 -102 -370 -16 -41
-32 -78 -37 -83 -6 -6 -20 19 -37 64 -16 40 -52 135 -82 210 -29 76 -53 149
-53 162 0 25 7 29 65 38 11 2 21 11 23 21 3 16 -13 17 -212 17 -209 0 -216 -1
-216 -20 0 -16 7 -20 30 -20 39 0 73 -35 96 -98 10 -26 21 -51 24 -57 24 -35
27 -72 9 -109 -10 -20 -23 -54 -30 -74 -7 -20 -18 -46 -24 -57 -7 -11 -18 -38
-25 -60 -7 -22 -15 -44 -17 -48 -7 -12 -27 21 -46 73 -16 48 -99 254 -123 307
-35 77 -27 123 22 123 17 0 24 6 24 20 0 19 -7 20 -190 20 -180 0 -190 -1
-190 -19z"/>
<path d="M1350 841 c0 -12 9 -21 25 -25 28 -7 44 -35 99 -171 20 -49 41 -99
46 -110 5 -11 19 -44 30 -72 48 -125 62 -160 75 -190 8 -17 15 -34 15 -38 0
-3 10 -30 23 -58 13 -29 34 -80 47 -114 20 -50 29 -63 46 -63 15 0 25 10 34
32 23 59 70 172 85 203 7 17 25 57 39 90 59 141 85 199 86 187 0 -13 60 -173
86 -229 8 -17 14 -34 14 -37 0 -7 61 -168 83 -218 7 -16 20 -28 29 -28 19 0
31 23 83 160 19 52 40 106 46 120 6 14 28 72 49 130 49 133 77 207 94 245 8
17 17 41 21 55 17 56 46 100 70 106 16 4 25 13 25 25 0 18 -9 19 -115 19 -108
0 -115 -1 -115 -20 0 -15 7 -20 24 -20 14 0 32 -7 40 -16 27 -27 22 -52 -48
-234 -14 -36 -40 -105 -59 -154 -19 -49 -36 -85 -39 -80 -3 5 -11 27 -18 49
-7 22 -16 45 -20 50 -4 6 -13 28 -20 50 -7 22 -18 54 -25 70 -31 70 -73 182
-79 212 -6 26 -4 34 13 42 11 6 31 11 45 11 19 0 26 5 26 20 0 19 -7 20 -210
20 -203 0 -210 -1 -210 -20 0 -15 7 -20 25 -20 33 0 71 -38 96 -98 12 -26 28
-63 36 -82 12 -25 13 -40 6 -60 -69 -173 -108 -260 -115 -258 -5 2 -27 48 -49
103 -21 55 -44 109 -49 120 -21 46 -78 192 -84 217 -7 30 14 58 45 58 12 0 19
7 19 20 0 19 -7 20 -185 20 -175 0 -185 -1 -185 -19z"/>
<path d="M2710 840 c0 -16 7 -20 35 -20 22 0 43 -8 55 -20 19 -19 20 -33 20
-363 0 -372 -2 -387 -55 -387 -34 0 -55 -10 -55 -26 0 -12 39 -14 220 -14 188
0 220 2 220 15 0 9 -14 17 -40 21 -69 11 -75 25 -78 204 l-4 158 44 -5 c86
-11 129 -52 149 -142 7 -32 16 -51 25 -51 12 0 14 36 14 215 0 183 -2 215 -15
215 -8 0 -17 -12 -20 -27 -18 -84 -72 -138 -147 -146 l-48 -5 0 165 0 164 108
-7 c163 -9 210 -37 236 -141 8 -31 18 -49 29 -51 15 -3 17 10 17 132 l0 136
-355 0 c-348 0 -355 0 -355 -20z"/>
</g>
</svg>
