<?xml version="1.0" encoding="utf-8"?>
<!-- Generator: Adobe Illustrator 24.2.3, SVG Export Plug-In . SVG Version: 6.00 Build 0)  -->
<svg version="1.1" id="Layer_1" focusable="false" xmlns="http://www.w3.org/2000/svg" xmlns:xlink="http://www.w3.org/1999/xlink"
	 x="0px" y="0px" viewBox="0 0 576 512" style="enable-background:new 0 0 576 512;" xml:space="preserve">
<style type="text/css">
	.st0{fill:none;}
</style>
<g>
	<polygon class="st0" points="480.3,64 416.3,64 416.3,106.7 480.3,162.7 	"/>
	<path d="M570.9,242l-58.6-51.3V48c0-8.8-7.2-16-16-16h-96.1c-8.8,0-16,7.2-16,16v30.7L298.7,4c-6-5.3-15-5.3-21.1,0L5.5,242
		c-3.3,3.2-5.2,7.5-5.5,12c0,8.8,7.2,16,16,16c3.8-0.2,7.5-1.6,10.6-4L64,233.2V464c0.1,26.5,21.5,47.9,48,48h352.3
		c26.5-0.1,47.9-21.5,48-48V233.2l37.5,32.8c3,2.2,6.5,3.5,10.2,3.7c8.8,0,16-7.2,16-16C575.8,249.3,574,245.2,570.9,242z M416.3,64
		h64v98.7l-64-56V64z M480.3,464c0,8.8-7.2,16-16,16h-15.7h-16.7h-32.1H175.7h-32h-22.9h-8.7c-8.8,0-16-7.2-16-16V205.2l192.1-168
		l192.1,168L480.3,464z"/>
</g>
</svg>
